<svg xmlns="http://www.w3.org/2000/svg" viewBox="0 0 360.72 66.25"><defs><style>.cls-1{fill:#ffffff;}.cls-2{fill:#fedf00;}</style></defs><title>Full</title><g id="Layer_2" data-name="Layer 2"><g id="Layer_1-2" data-name="Layer 1"><path class="cls-1" d="M125.73,57a5.44,5.44,0,0,1,.36-2,4.72,4.72,0,0,1,1-1.62,5.23,5.23,0,0,1,6.2-.86A4.31,4.31,0,0,1,135,54.34l-1.64.51a2.78,2.78,0,0,0-1.06-1.09,3,3,0,0,0-1.52-.39,3.15,3.15,0,0,0-2.34,1.05,3.72,3.72,0,0,0-.69,1.16,4,4,0,0,0-.26,1.46,3.91,3.91,0,0,0,.27,1.46,3.73,3.73,0,0,0,.71,1.19,3.34,3.34,0,0,0,1,.79,3,3,0,0,0,1.29.28,3.13,3.13,0,0,0,.86-.12,3.05,3.05,0,0,0,.78-.33,3,3,0,0,0,.62-.49,1.61,1.61,0,0,0,.38-.6l1.63.5a3.51,3.51,0,0,1-.63,1,4,4,0,0,1-1,.78,5.23,5.23,0,0,1-1.23.52,5.47,5.47,0,0,1-1.42.19,4.94,4.94,0,0,1-3.64-1.54,5,5,0,0,1-1-1.65A5.24,5.24,0,0,1,125.73,57Z"/><path class="cls-1" d="M141.16,62.21a4.89,4.89,0,0,1-3.62-1.54,5,5,0,0,1-1-1.64,5.35,5.35,0,0,1-.36-2,5.24,5.24,0,0,1,1.4-3.61,4.69,4.69,0,0,1,1.57-1.12,5.12,5.12,0,0,1,4.06,0,4.77,4.77,0,0,1,1.59,1.12,5.17,5.17,0,0,1,1,1.63,5.24,5.24,0,0,1,.37,2,5.35,5.35,0,0,1-.36,2,5,5,0,0,1-1,1.64,5.14,5.14,0,0,1-1.59,1.12A4.83,4.83,0,0,1,141.16,62.21Zm-3.29-5.11a4,4,0,0,0,.26,1.44,3.67,3.67,0,0,0,.7,1.16,3.35,3.35,0,0,0,1,.78,2.89,2.89,0,0,0,1.28.28,3,3,0,0,0,1.28-.28,3.38,3.38,0,0,0,1.05-.79,3.64,3.64,0,0,0,.72-1.18,4.3,4.3,0,0,0,0-2.89,3.49,3.49,0,0,0-.72-1.17,3.23,3.23,0,0,0-1.05-.79,3,3,0,0,0-1.28-.29,2.77,2.77,0,0,0-1.28.3,3.38,3.38,0,0,0-1,.79,3.77,3.77,0,0,0-.7,1.18A4.11,4.11,0,0,0,137.87,57.1Z"/><path class="cls-1" d="M156.81,62h-1.67V56.47a4.29,4.29,0,0,0-.48-2.32,1.67,1.67,0,0,0-1.47-.72,2.86,2.86,0,0,0-1,.2A3.91,3.91,0,0,0,150.39,55a3.25,3.25,0,0,0-.51,1v6h-1.67V52.1h1.52v2.13a4.36,4.36,0,0,1,1.7-1.68,4.92,4.92,0,0,1,2.42-.62,2.87,2.87,0,0,1,1.42.31,2.43,2.43,0,0,1,.92.88,3.89,3.89,0,0,1,.48,1.32,8.46,8.46,0,0,1,.14,1.65Z"/><path class="cls-1" d="M162.89,62.21a7.9,7.9,0,0,1-2.35-.37,5.92,5.92,0,0,1-2-1.08l.73-1.12a7.06,7.06,0,0,0,1.74,1,5.23,5.23,0,0,0,1.85.33,3,3,0,0,0,1.72-.43,1.36,1.36,0,0,0,.63-1.2,1.13,1.13,0,0,0-.17-.62,1.42,1.42,0,0,0-.51-.45,4.5,4.5,0,0,0-.88-.34c-.35-.1-.76-.21-1.23-.32s-1.11-.3-1.54-.44a4,4,0,0,1-1.06-.49,1.67,1.67,0,0,1-.61-.69,2.2,2.2,0,0,1-.19-1,2.92,2.92,0,0,1,.29-1.32,2.83,2.83,0,0,1,.81-1,3.5,3.5,0,0,1,1.21-.59,5.11,5.11,0,0,1,1.49-.2,6,6,0,0,1,2.09.36,5.19,5.19,0,0,1,1.63,1l-.76,1a4.16,4.16,0,0,0-1.4-.83,4.9,4.9,0,0,0-1.6-.28,2.92,2.92,0,0,0-1.55.39,1.36,1.36,0,0,0-.63,1.25,1.2,1.2,0,0,0,.12.57,1.12,1.12,0,0,0,.41.4,3.43,3.43,0,0,0,.73.3l1.07.29c.66.15,1.23.3,1.72.46a5.35,5.35,0,0,1,1.22.56,2.25,2.25,0,0,1,.72.76,2.2,2.2,0,0,1,.24,1.07,2.63,2.63,0,0,1-1.07,2.2A4.62,4.62,0,0,1,162.89,62.21Z"/><path class="cls-1" d="M173.93,61.52l-.4.18c-.16.07-.35.14-.56.21a4.22,4.22,0,0,1-.68.17,3.87,3.87,0,0,1-.77.07,2.59,2.59,0,0,1-1.58-.5,1.86,1.86,0,0,1-.66-1.57V53.41h-1.35V52.1h1.35V48.79H171V52.1h2.22v1.31H171v6.16a1.06,1.06,0,0,0,.36.79,1.2,1.2,0,0,0,.76.25,2.36,2.36,0,0,0,.9-.16,3.07,3.07,0,0,0,.56-.26Z"/><path class="cls-1" d="M180.73,53.56a4.31,4.31,0,0,0-2.21.65,3.3,3.3,0,0,0-1.36,1.69V62h-1.67V52.1h1.56v2.3a4.66,4.66,0,0,1,1.35-1.67,3.35,3.35,0,0,1,1.78-.71h.33l.22,0Z"/><path class="cls-1" d="M185.45,62.21a2.78,2.78,0,0,1-2.36-1.05,5.07,5.07,0,0,1-.8-3.11V52.1H184v5.62c0,2,.71,3,2.11,3a3.25,3.25,0,0,0,1.93-.65,3.9,3.9,0,0,0,1.34-1.8V52.1H191V60c0,.4.18.6.53.61V62l-.44,0h-.32a1.16,1.16,0,0,1-.82-.29,1,1,0,0,1-.35-.73l0-1.16a4.58,4.58,0,0,1-1.75,1.72A4.8,4.8,0,0,1,185.45,62.21Z"/><path class="cls-1" d="M193.14,57a5.44,5.44,0,0,1,.36-2,4.72,4.72,0,0,1,1-1.62,4.92,4.92,0,0,1,3.65-1.51,4.86,4.86,0,0,1,2.55.65,4.31,4.31,0,0,1,1.63,1.76l-1.64.51a2.78,2.78,0,0,0-1.06-1.09,3,3,0,0,0-1.52-.39,3.15,3.15,0,0,0-2.34,1.05,3.72,3.72,0,0,0-.69,1.16,4,4,0,0,0-.26,1.46,3.91,3.91,0,0,0,.27,1.46,3.73,3.73,0,0,0,.71,1.19,3.46,3.46,0,0,0,1,.79,3,3,0,0,0,1.29.28,3.13,3.13,0,0,0,.86-.12,3.05,3.05,0,0,0,.78-.33,3,3,0,0,0,.62-.49,1.61,1.61,0,0,0,.38-.6l1.63.5a3.51,3.51,0,0,1-.63,1,4,4,0,0,1-1,.78,5.23,5.23,0,0,1-1.23.52,5.47,5.47,0,0,1-1.42.19,4.94,4.94,0,0,1-3.64-1.54,5,5,0,0,1-1-1.65A5.24,5.24,0,0,1,193.14,57Z"/><path class="cls-1" d="M209.46,61.52l-.4.18c-.16.07-.35.14-.56.21a4.51,4.51,0,0,1-.68.17,3.94,3.94,0,0,1-.77.07,2.57,2.57,0,0,1-1.58-.5,1.86,1.86,0,0,1-.66-1.57V53.41h-1.35V52.1h1.35V48.79h1.67V52.1h2.22v1.31h-2.22v6.16a1,1,0,0,0,.36.79,1.18,1.18,0,0,0,.76.25,2.36,2.36,0,0,0,.9-.16,3.45,3.45,0,0,0,.56-.26Z"/><path class="cls-1" d="M211,50.24V48.15h1.67v2.09ZM211,62V52.1h1.67V62Z"/><path class="cls-1" d="M219.72,62.21a4.89,4.89,0,0,1-3.62-1.54,5,5,0,0,1-1-1.64,5.35,5.35,0,0,1-.36-2,5.44,5.44,0,0,1,.37-2,5.19,5.19,0,0,1,1-1.63,4.73,4.73,0,0,1,1.58-1.12,4.81,4.81,0,0,1,2-.42,4.89,4.89,0,0,1,2,.42,4.77,4.77,0,0,1,1.59,1.12,5.19,5.19,0,0,1,1,1.63,5.44,5.44,0,0,1,.37,2,5.35,5.35,0,0,1-.36,2,5.06,5.06,0,0,1-1,1.64,4.92,4.92,0,0,1-1.59,1.12A4.83,4.83,0,0,1,219.72,62.21Zm-3.29-5.11a4,4,0,0,0,.26,1.44,3.86,3.86,0,0,0,.7,1.16,3.35,3.35,0,0,0,1.05.78,3.07,3.07,0,0,0,2.56,0,3.54,3.54,0,0,0,1.06-.79,3.79,3.79,0,0,0,.71-1.18,4.15,4.15,0,0,0,0-2.89,3.63,3.63,0,0,0-.71-1.17,3.38,3.38,0,0,0-1.06-.79,2.93,2.93,0,0,0-1.28-.29,2.8,2.8,0,0,0-1.28.3,3.38,3.38,0,0,0-1.05.79,4,4,0,0,0-.7,1.18A4.11,4.11,0,0,0,216.43,57.1Z"/><path class="cls-1" d="M235.38,62H233.7V56.47a4.29,4.29,0,0,0-.48-2.32,1.64,1.64,0,0,0-1.47-.72,2.9,2.9,0,0,0-1,.2,4,4,0,0,0-1,.54,3.89,3.89,0,0,0-.8.82,3.73,3.73,0,0,0-.51,1v6h-1.67V52.1h1.52v2.13a4.36,4.36,0,0,1,1.7-1.68,4.92,4.92,0,0,1,2.42-.62,2.94,2.94,0,0,1,1.43.31,2.4,2.4,0,0,1,.91.88,3.69,3.69,0,0,1,.48,1.32,8.43,8.43,0,0,1,.15,1.65Z"/><path class="cls-1" d="M257.74,62h-1.67V56.47a4.1,4.1,0,0,0-.51-2.3,1.68,1.68,0,0,0-1.49-.74,2.65,2.65,0,0,0-1.83.73,4,4,0,0,0-1.15,1.89v6h-1.67V56.47a4.18,4.18,0,0,0-.5-2.32,1.67,1.67,0,0,0-1.48-.72,2.71,2.71,0,0,0-1.82.71A3.89,3.89,0,0,0,244.46,56v6h-1.67V52.1h1.52v2.13a4.46,4.46,0,0,1,1.57-1.7,4.09,4.09,0,0,1,2.19-.6,2.79,2.79,0,0,1,2,.67,3,3,0,0,1,.91,1.74,4.12,4.12,0,0,1,3.78-2.41,3,3,0,0,1,1.43.31,2.36,2.36,0,0,1,.92.88,3.9,3.9,0,0,1,.5,1.32,8.43,8.43,0,0,1,.15,1.65Z"/><path class="cls-1" d="M262.89,62.21a3.51,3.51,0,0,1-1.31-.24,3.28,3.28,0,0,1-1.06-.66,3,3,0,0,1-1-2.2,2.46,2.46,0,0,1,.31-1.24,2.72,2.72,0,0,1,.86-1,4.31,4.31,0,0,1,1.33-.63,5.93,5.93,0,0,1,1.68-.23,9.33,9.33,0,0,1,1.47.13,7.07,7.07,0,0,1,1.31.36v-.79a2.41,2.41,0,0,0-2.62-2.61,5.56,5.56,0,0,0-3.16,1.16l-.55-1.08a6.86,6.86,0,0,1,3.86-1.29,4.27,4.27,0,0,1,3.05,1,3.92,3.92,0,0,1,1.09,3v4c0,.4.18.6.53.61V62l-.44,0a2.06,2.06,0,0,1-.36,0,1.1,1.1,0,0,1-.79-.29,1.29,1.29,0,0,1-.35-.71l0-.71a4.21,4.21,0,0,1-1.68,1.36A5.13,5.13,0,0,1,262.89,62.21Zm.43-1.26a4.22,4.22,0,0,0,1.67-.33,2.83,2.83,0,0,0,1.17-.88,1.06,1.06,0,0,0,.36-.74V57.53a7,7,0,0,0-2.53-.47,3.59,3.59,0,0,0-2,.53,1.6,1.6,0,0,0-.79,1.39,1.85,1.85,0,0,0,.16.78,1.76,1.76,0,0,0,.46.62,2,2,0,0,0,.69.42A2.41,2.41,0,0,0,263.32,61Z"/><path class="cls-1" d="M279.47,62H277.8V56.47a4.29,4.29,0,0,0-.48-2.32,1.67,1.67,0,0,0-1.47-.72,2.86,2.86,0,0,0-1,.2A3.91,3.91,0,0,0,273.05,55a3.25,3.25,0,0,0-.51,1v6h-1.67V52.1h1.52v2.13a4.36,4.36,0,0,1,1.7-1.68,4.92,4.92,0,0,1,2.42-.62,2.94,2.94,0,0,1,1.43.31,2.47,2.47,0,0,1,.91.88,3.89,3.89,0,0,1,.48,1.32,8.46,8.46,0,0,1,.14,1.65Z"/><path class="cls-1" d="M284.62,62.21a3.55,3.55,0,0,1-1.31-.24,3.34,3.34,0,0,1-1.05-.66,3,3,0,0,1-.71-1,2.9,2.9,0,0,1-.25-1.22,2.56,2.56,0,0,1,.3-1.24,2.65,2.65,0,0,1,.87-1,4.21,4.21,0,0,1,1.33-.63,5.93,5.93,0,0,1,1.68-.23,9.1,9.1,0,0,1,1.46.13,6.86,6.86,0,0,1,1.31.36v-.79a2.39,2.39,0,0,0-2.62-2.61,5.55,5.55,0,0,0-3.15,1.16l-.55-1.08a6.83,6.83,0,0,1,3.85-1.29,4.25,4.25,0,0,1,3.05,1,3.89,3.89,0,0,1,1.09,3v4c0,.4.18.6.54.61V62l-.44,0a2.17,2.17,0,0,1-.36,0,1.1,1.1,0,0,1-.79-.29,1.23,1.23,0,0,1-.35-.71l0-.71a4.21,4.21,0,0,1-1.68,1.36A5.17,5.17,0,0,1,284.62,62.21Zm.44-1.26a4.17,4.17,0,0,0,1.66-.33,2.7,2.7,0,0,0,1.17-.88,1.06,1.06,0,0,0,.36-.74V57.53a7,7,0,0,0-2.52-.47,3.65,3.65,0,0,0-2.05.53,1.62,1.62,0,0,0-.79,1.39,1.85,1.85,0,0,0,.17.78,1.63,1.63,0,0,0,.45.62,2.2,2.2,0,0,0,.69.42A2.47,2.47,0,0,0,285.06,61Z"/><path class="cls-1" d="M296.55,62.13a4.12,4.12,0,0,1-1.85-.42,4.56,4.56,0,0,1-1.45-1.12,5.09,5.09,0,0,1-.94-1.61,5.54,5.54,0,0,1-.33-1.9,6,6,0,0,1,.33-2,4.92,4.92,0,0,1,.94-1.64,4.39,4.39,0,0,1,1.45-1.11,4.17,4.17,0,0,1,1.87-.41,3.79,3.79,0,0,1,2.17.61,5.47,5.47,0,0,1,1.54,1.53v-2h1.48v9.8a4.09,4.09,0,0,1-.4,1.87,3.9,3.9,0,0,1-1.08,1.36,4.75,4.75,0,0,1-1.61.84,6.59,6.59,0,0,1-2,.28,5.64,5.64,0,0,1-2.75-.58,5.08,5.08,0,0,1-1.76-1.6l1-.86a3.63,3.63,0,0,0,1.52,1.31,4.56,4.56,0,0,0,2,.44,4.31,4.31,0,0,0,1.3-.19,2.83,2.83,0,0,0,1.07-.57,2.66,2.66,0,0,0,.73-1,3,3,0,0,0,.28-1.35V60.15a4.42,4.42,0,0,1-1.52,1.46,4.28,4.28,0,0,1-1,.39A4.08,4.08,0,0,1,296.55,62.13Zm.52-1.37a2.75,2.75,0,0,0,1-.19,3.57,3.57,0,0,0,.92-.5,3.62,3.62,0,0,0,.7-.71,2.43,2.43,0,0,0,.38-.82V55.69a3.9,3.9,0,0,0-.54-.93,4.69,4.69,0,0,0-.75-.73,3.48,3.48,0,0,0-.91-.49,3,3,0,0,0-1-.17,2.87,2.87,0,0,0-1.36.32,3.39,3.39,0,0,0-1,.86,4.14,4.14,0,0,0-.65,1.21,4.24,4.24,0,0,0-.22,1.35,3.77,3.77,0,0,0,1,2.57,3.67,3.67,0,0,0,1.08.79A3.16,3.16,0,0,0,297.07,60.76Z"/><path class="cls-1" d="M308.85,62.21a5.15,5.15,0,0,1-2.06-.41,4.74,4.74,0,0,1-1.59-1.11,5.2,5.2,0,0,1-1-1.65,5.48,5.48,0,0,1,0-4,5.07,5.07,0,0,1,1-1.63,4.89,4.89,0,0,1,1.6-1.11,5,5,0,0,1,2.06-.41,4.9,4.9,0,0,1,2,.42,4.66,4.66,0,0,1,1.57,1.11,4.83,4.83,0,0,1,1,1.61,5.21,5.21,0,0,1,.35,1.91c0,.14,0,.27,0,.38a1.76,1.76,0,0,1,0,.27h-8.23A3.94,3.94,0,0,0,305.9,59a3.57,3.57,0,0,0,.74,1,3.63,3.63,0,0,0,1,.69,3.12,3.12,0,0,0,1.22.24,3.37,3.37,0,0,0,.9-.12,3.62,3.62,0,0,0,.81-.33,2.67,2.67,0,0,0,.68-.52,2.15,2.15,0,0,0,.44-.68l1.45.4a3.74,3.74,0,0,1-.68,1,4.43,4.43,0,0,1-1,.78,5,5,0,0,1-1.25.53A5.53,5.53,0,0,1,308.85,62.21Zm3.4-5.82a3.59,3.59,0,0,0-1.09-2.32,3.58,3.58,0,0,0-1-.65,3.34,3.34,0,0,0-3.54.66,3.58,3.58,0,0,0-.73,1,3.83,3.83,0,0,0-.33,1.29Z"/><path class="cls-1" d="M330.64,62H329V56.47a4.1,4.1,0,0,0-.51-2.3,1.68,1.68,0,0,0-1.49-.74,2.65,2.65,0,0,0-1.83.73A4,4,0,0,0,324,56.05v6h-1.67V56.47a4.18,4.18,0,0,0-.5-2.32,1.67,1.67,0,0,0-1.48-.72,2.71,2.71,0,0,0-1.82.71A3.89,3.89,0,0,0,317.36,56v6h-1.67V52.1h1.52v2.13a4.46,4.46,0,0,1,1.57-1.7,4.09,4.09,0,0,1,2.19-.6,2.79,2.79,0,0,1,2,.67,3,3,0,0,1,.91,1.74,4.12,4.12,0,0,1,3.78-2.41,2.94,2.94,0,0,1,1.43.31,2.29,2.29,0,0,1,.92.88,3.9,3.9,0,0,1,.5,1.32,8.43,8.43,0,0,1,.15,1.65Z"/><path class="cls-1" d="M337.63,62.21a5.07,5.07,0,0,1-2.05-.41,4.89,4.89,0,0,1-1.6-1.11A5,5,0,0,1,333,59a5.48,5.48,0,0,1,0-4,5,5,0,0,1,4.7-3.15,4.83,4.83,0,0,1,2,.42,4.56,4.56,0,0,1,1.57,1.11,5,5,0,0,1,1,1.61,5.43,5.43,0,0,1,.35,1.91c0,.14,0,.27,0,.38s0,.2,0,.27h-8.23a4,4,0,0,0,.35,1.35,3.39,3.39,0,0,0,.74,1,3.58,3.58,0,0,0,1,.69,3.21,3.21,0,0,0,1.23.24,3.35,3.35,0,0,0,.89-.12,3.7,3.7,0,0,0,.82-.33,2.62,2.62,0,0,0,.67-.52,2,2,0,0,0,.45-.68l1.44.4a3.7,3.7,0,0,1-.67,1,4.73,4.73,0,0,1-1,.78,4.93,4.93,0,0,1-1.24.53A5.61,5.61,0,0,1,337.63,62.21Zm3.4-5.82a3.59,3.59,0,0,0-1.09-2.32,3.45,3.45,0,0,0-1-.65,3.36,3.36,0,0,0-3.54.66,3.37,3.37,0,0,0-.72,1,3.41,3.41,0,0,0-.33,1.29Z"/><path class="cls-1" d="M353.08,62h-1.67V56.47a4.28,4.28,0,0,0-.49-2.32,1.64,1.64,0,0,0-1.47-.72,2.9,2.9,0,0,0-1,.2,4,4,0,0,0-1,.54,3.62,3.62,0,0,0-.79.82,3.5,3.5,0,0,0-.52,1v6h-1.67V52.1H346v2.13a4.36,4.36,0,0,1,1.7-1.68,4.92,4.92,0,0,1,2.42-.62,2.94,2.94,0,0,1,1.43.31,2.4,2.4,0,0,1,.91.88,3.9,3.9,0,0,1,.49,1.32,9.32,9.32,0,0,1,.14,1.65Z"/><path class="cls-1" d="M360.72,61.52l-.4.18-.56.21a4.35,4.35,0,0,1-.69.17,3.8,3.8,0,0,1-.77.07,2.54,2.54,0,0,1-1.57-.5,1.83,1.83,0,0,1-.67-1.57V53.41h-1.35V52.1h1.35V48.79h1.67V52.1H360v1.31h-2.23v6.16a1.06,1.06,0,0,0,.36.79,1.2,1.2,0,0,0,.76.25,2.45,2.45,0,0,0,.91-.16,3.45,3.45,0,0,0,.56-.26Z"/><path class="cls-2" d="M32.45,18.25V36.5h-5.7v-4a13.57,13.57,0,0,1-9.9,4.25,15.72,15.72,0,0,1-6.57-1.4A16.56,16.56,0,0,1,4.93,31.5a18.23,18.23,0,0,1-3.6-5.78A19,19,0,0,1,0,18.55,18.06,18.06,0,0,1,5,6a17.58,17.58,0,0,1,5.47-3.85A16.41,16.41,0,0,1,17.3.75a16.69,16.69,0,0,1,8.58,2.1A13.58,13.58,0,0,1,31.25,8.5L26.1,12.3a9.55,9.55,0,0,0-3.77-4.05,10.43,10.43,0,0,0-5.28-1.4,9,9,0,0,0-4.12,1,9.59,9.59,0,0,0-3.2,2.6,12.1,12.1,0,0,0-2.05,3.8A14,14,0,0,0,7,18.75a13.47,13.47,0,0,0,.8,4.67A11.86,11.86,0,0,0,10,27.2a10.06,10.06,0,0,0,3.33,2.52,9.44,9.44,0,0,0,4.17.93,11.63,11.63,0,0,0,8.49-4,2.82,2.82,0,0,0,.81-2V23.3H19.6"/><path class="cls-2" d="M49.8,37a14.45,14.45,0,0,1-5.75-1.1,12.82,12.82,0,0,1-4.32-3A13,13,0,0,1,37,28.6a14.18,14.18,0,0,1-1-5.15,14.33,14.33,0,0,1,1-5.2,13,13,0,0,1,2.73-4.33,12.8,12.8,0,0,1,4.32-3,15.53,15.53,0,0,1,11.48,0,13,13,0,0,1,4.3,3,13.18,13.18,0,0,1,2.72,4.33,14.33,14.33,0,0,1,1,5.2,14.18,14.18,0,0,1-1,5.15,13.24,13.24,0,0,1-2.7,4.32,12.64,12.64,0,0,1-4.3,3A14.45,14.45,0,0,1,49.8,37ZM43,23.45a8.86,8.86,0,0,0,.53,3.17,7.62,7.62,0,0,0,1.45,2.48,6.37,6.37,0,0,0,2.17,1.62,6.57,6.57,0,0,0,5.4,0,6.51,6.51,0,0,0,2.18-1.62,7.59,7.59,0,0,0,1.44-2.5,9.11,9.11,0,0,0,.53-3.2,9,9,0,0,0-.53-3.15,7.59,7.59,0,0,0-1.44-2.5,6.67,6.67,0,0,0-2.18-1.63,6.41,6.41,0,0,0-2.7-.57,6.14,6.14,0,0,0-2.7.6,6.73,6.73,0,0,0-2.17,1.65,7.61,7.61,0,0,0-1.45,2.5A9,9,0,0,0,43,23.45Z"/><path class="cls-2" d="M68,0h6.7V28.1a3.28,3.28,0,0,0,.7,2.25,2.53,2.53,0,0,0,2,.8,5.1,5.1,0,0,0,1.32-.2,8.34,8.34,0,0,0,1.38-.5l.9,5.1a13,13,0,0,1-3.15,1,17.43,17.43,0,0,1-3.25.35,6.71,6.71,0,0,1-4.88-1.68A6.32,6.32,0,0,1,68,30.45Z"/><path class="cls-2" d="M94.7,37a11.83,11.83,0,0,1-9-4,13.5,13.5,0,0,1-2.58-4.33,15.17,15.17,0,0,1-.92-5.32,15.71,15.71,0,0,1,.87-5.3,14.13,14.13,0,0,1,2.43-4.3,11.22,11.22,0,0,1,3.7-2.9A10.55,10.55,0,0,1,94,9.85a10,10,0,0,1,5.22,1.4,10.16,10.16,0,0,1,3.63,3.65V0h6.7V28.8a2.51,2.51,0,0,0,.35,1.5,1.53,1.53,0,0,0,1.2.5v5.7a15.54,15.54,0,0,1-2.85.35,4.65,4.65,0,0,1-3-.9A3.28,3.28,0,0,1,104,33.6L103.8,32a9.44,9.44,0,0,1-3.93,3.77A11,11,0,0,1,94.7,37Zm1.75-5.7a6.24,6.24,0,0,0,2-.33,6.67,6.67,0,0,0,1.85-.92,8.08,8.08,0,0,0,1.52-1.4,5.76,5.76,0,0,0,1-1.75V20.65a7.37,7.37,0,0,0-1.13-2A8.33,8.33,0,0,0,100,17a8.83,8.83,0,0,0-2-1.07,5.46,5.46,0,0,0-2-.4,6.08,6.08,0,0,0-2.78.65A6.51,6.51,0,0,0,91.1,18a8.45,8.45,0,0,0-1.4,2.58,9.26,9.26,0,0,0-.5,3,8.1,8.1,0,0,0,2,5.5,6.81,6.81,0,0,0,2.27,1.65A7,7,0,0,0,96.45,31.3Z"/><path class="cls-2" d="M128.25,37a14.48,14.48,0,0,1-5.7-1.08,12.86,12.86,0,0,1-7.13-7.22,13.78,13.78,0,0,1-1-5.15,14.47,14.47,0,0,1,1-5.28,12.82,12.82,0,0,1,2.75-4.35,13.11,13.11,0,0,1,4.37-3,14.63,14.63,0,0,1,5.78-1.1A14.23,14.23,0,0,1,134,11a13.06,13.06,0,0,1,4.3,3,12.34,12.34,0,0,1,2.7,4.3,14.23,14.23,0,0,1,.93,5.1c0,.43,0,.85,0,1.25a5.16,5.16,0,0,1-.12,1H121.55a7.79,7.79,0,0,0,.75,2.75,6.73,6.73,0,0,0,1.55,2.05,6.66,6.66,0,0,0,2.15,1.3,7,7,0,0,0,2.5.45,7.71,7.71,0,0,0,3.77-1,5.48,5.48,0,0,0,2.46-2.71h6.5c-1,2-3.29,5.38-5.41,6.67A14.34,14.34,0,0,1,128.25,37Zm6.8-15.8a7,7,0,0,0-2.18-4.73,6.65,6.65,0,0,0-4.67-1.77,6.85,6.85,0,0,0-2.53.47,6.62,6.62,0,0,0-2.07,1.33,7,7,0,0,0-1.48,2.05,7.14,7.14,0,0,0-.67,2.65Z"/><path class="cls-2" d="M170.4,36.5h-6.7V21.8a7.69,7.69,0,0,0-1.1-4.6,3.61,3.61,0,0,0-3-1.45,5.65,5.65,0,0,0-2.05.4,7.8,7.8,0,0,0-2,1.12A9.48,9.48,0,0,0,153.85,19a6.79,6.79,0,0,0-1.1,2.2V36.5h-6.7V10.3h6v4.85a9.81,9.81,0,0,1,4.2-3.9,13.5,13.5,0,0,1,6.2-1.4,7.92,7.92,0,0,1,4,.9,6.52,6.52,0,0,1,2.4,2.35,9.88,9.88,0,0,1,1.17,3.3,21.26,21.26,0,0,1,.33,3.75Z"/><path class="cls-1" d="M197.5,7.05H186.15V36.5H179.3V7.05H168V1H197.5Z"/><path class="cls-1" d="M211.35,16.1a13.14,13.14,0,0,0-5.45,1.17,6.89,6.89,0,0,0-3.45,3.38V36.5h-6.7V10.3h6.15v5.6a11.94,11.94,0,0,1,1.65-2.43,12.43,12.43,0,0,1,2-1.87,9.39,9.39,0,0,1,2.22-1.22A6,6,0,0,1,210,10h.82a3,3,0,0,1,.53.05Z"/><path class="cls-1" d="M221.8,0V6.65h-6.7m0,29.85V10.3h6.7V36.5Z"/><path class="cls-1" d="M235,37a10.07,10.07,0,0,1-3.55-.62,8.45,8.45,0,0,1-2.85-1.76A8,8,0,0,1,226.72,32a8,8,0,0,1-.67-3.3,7.32,7.32,0,0,1,.82-3.43,7.84,7.84,0,0,1,2.3-2.67,11.28,11.28,0,0,1,3.53-1.72,15.2,15.2,0,0,1,4.5-.63,19.42,19.42,0,0,1,3.42.3,13.81,13.81,0,0,1,3,.85V19.9a5.27,5.27,0,0,0-1.48-4,6.13,6.13,0,0,0-4.37-1.4,11.57,11.57,0,0,0-4.1.75,18.74,18.74,0,0,0-4.1,2.2L227.5,13.2a19.35,19.35,0,0,1,10.9-3.35c3.76,0,6.69.92,8.77,2.77s3.13,4.53,3.13,8V28.8a2.36,2.36,0,0,0,.37,1.5,1.64,1.64,0,0,0,1.23.5v5.7a15.26,15.26,0,0,1-3,.35A4.47,4.47,0,0,1,246,36a3.65,3.65,0,0,1-1.27-2.25l-.15-1.45a11.71,11.71,0,0,1-4.25,3.5A12.21,12.21,0,0,1,235,37Zm1.9-4.9a8.73,8.73,0,0,0,3.22-.6,5.84,5.84,0,0,0,2.38-1.6,2.42,2.42,0,0,0,1.1-1.9V25a17.25,17.25,0,0,0-2.6-.73,14.36,14.36,0,0,0-2.7-.27,7.17,7.17,0,0,0-4.25,1.17,3.6,3.6,0,0,0-.35,5.8A4.7,4.7,0,0,0,236.9,32.1Z"/><path class="cls-1" d="M280.9,36.5h-6.7V21.8a7.69,7.69,0,0,0-1.1-4.6,3.61,3.61,0,0,0-3.05-1.45,5.65,5.65,0,0,0-2.05.4,7.8,7.8,0,0,0-2,1.12A9.48,9.48,0,0,0,264.35,19a6.79,6.79,0,0,0-1.1,2.2V36.5h-6.7V10.3h6.05v4.85a9.81,9.81,0,0,1,4.2-3.9,13.5,13.5,0,0,1,6.2-1.4,7.92,7.92,0,0,1,4,.9,6.52,6.52,0,0,1,2.4,2.35,10.1,10.1,0,0,1,1.17,3.3,21.26,21.26,0,0,1,.33,3.75Z"/><path class="cls-1" d="M297,36.65a10.77,10.77,0,0,1-4.8-1,11.51,11.51,0,0,1-3.73-2.88,12.86,12.86,0,0,1-2.42-4.22,15.08,15.08,0,0,1-.85-5.1,15.24,15.24,0,0,1,.9-5.3,13.69,13.69,0,0,1,2.5-4.3,11.38,11.38,0,0,1,3.85-2.9,11.56,11.56,0,0,1,4.95-1.05,10.31,10.31,0,0,1,5.35,1.37,11.71,11.71,0,0,1,3.8,3.68V10.3h5.85v25a12,12,0,0,1-1.1,5.2,11.61,11.61,0,0,1-3,3.9,13.5,13.5,0,0,1-4.6,2.45,19,19,0,0,1-5.82.85,16.43,16.43,0,0,1-7.23-1.43,14.65,14.65,0,0,1-5-4l3.65-3.55a10.37,10.37,0,0,0,3.77,2.9,11.41,11.41,0,0,0,4.83,1.05,10.11,10.11,0,0,0,3-.43,7.2,7.2,0,0,0,2.53-1.32,6.25,6.25,0,0,0,1.72-2.3,8,8,0,0,0,.63-3.3V32a8.85,8.85,0,0,1-3.65,3.47A10.74,10.74,0,0,1,297,36.65Zm2.25-5.35a6.43,6.43,0,0,0,2.1-.35A7.53,7.53,0,0,0,303.2,30a8,8,0,0,0,1.5-1.4,6.54,6.54,0,0,0,1-1.7V20.65a8.16,8.16,0,0,0-2.83-3.7,6.75,6.75,0,0,0-4-1.4,5.77,5.77,0,0,0-2.8.67A6.9,6.9,0,0,0,293.9,18a8.2,8.2,0,0,0-1.38,2.58,9.51,9.51,0,0,0-.47,3,8,8,0,0,0,.55,3,7.6,7.6,0,0,0,1.52,2.45,7.17,7.17,0,0,0,2.28,1.65A6.68,6.68,0,0,0,299.25,31.3Z"/><path class="cls-1" d="M318.4,0h6.7V28.1a3.28,3.28,0,0,0,.7,2.25,2.51,2.51,0,0,0,2,.8,5.1,5.1,0,0,0,1.32-.2,9.05,9.05,0,0,0,1.38-.5l.9,5.1a13,13,0,0,1-3.15,1,17.52,17.52,0,0,1-3.25.35,6.71,6.71,0,0,1-4.88-1.68,6.32,6.32,0,0,1-1.72-4.77Z"/><path class="cls-1" d="M346.45,37a14.44,14.44,0,0,1-5.7-1.08A12.81,12.81,0,0,1,336.4,33a13,13,0,0,1-2.78-4.3,13.78,13.78,0,0,1-1-5.15,14.67,14.67,0,0,1,.94-5.28A12.78,12.78,0,0,1,340.72,11a14.63,14.63,0,0,1,5.78-1.1,14.23,14.23,0,0,1,5.72,1.1,13.16,13.16,0,0,1,4.3,3,12.64,12.64,0,0,1,2.7,4.3,14.23,14.23,0,0,1,.93,5.1c0,.43,0,.85,0,1.25a6.08,6.08,0,0,1-.12,1H339.75a7.39,7.39,0,0,0,.75,2.75,6.65,6.65,0,0,0,3.7,3.35,7,7,0,0,0,2.5.45,7.71,7.71,0,0,0,3.77-1,5.46,5.46,0,0,0,2.44-2.7h6.63c-1,2-3.4,5.38-5.52,6.67A14.36,14.36,0,0,1,346.45,37Zm6.8-15.8a7,7,0,0,0-2.18-4.73,6.65,6.65,0,0,0-4.67-1.77,6.59,6.59,0,0,0-4.61,1.8,7,7,0,0,0-1.47,2.05,7.14,7.14,0,0,0-.67,2.65Z"/></g></g></svg>