<svg xmlns="http://www.w3.org/2000/svg" viewBox="0 0 360.93 66.29"><defs><style>.cls-1{font-size:19px;font-family:Raleway-Medium, Raleway;}.cls-1,.cls-4{fill:#fff;}.cls-2{letter-spacing:0em;}.cls-3{fill:#fedf00;}</style></defs><title>Full</title><g id="Layer_2" data-name="Layer 2"><g id="Layer_1-2" data-name="Layer 1"><text class="cls-1" transform="translate(125.05 62.02)"><tspan class="cls-2">c</tspan><tspan x="10.43" y="0">onstruction manageme</tspan><tspan class="cls-2" x="218.08" y="0">n</tspan><tspan x="229.19" y="0">t</tspan></text><path class="cls-3" d="M32.45,18.25V36.5h-5.7v-4a13.57,13.57,0,0,1-9.9,4.25,15.72,15.72,0,0,1-6.57-1.4A16.56,16.56,0,0,1,4.93,31.5a18.23,18.23,0,0,1-3.6-5.78A19,19,0,0,1,0,18.55,18.06,18.06,0,0,1,5,6a17.58,17.58,0,0,1,5.47-3.85A16.41,16.41,0,0,1,17.3.75a16.69,16.69,0,0,1,8.58,2.1A13.58,13.58,0,0,1,31.25,8.5L26.1,12.3a9.55,9.55,0,0,0-3.77-4.05,10.43,10.43,0,0,0-5.28-1.4,9,9,0,0,0-4.12,1,9.59,9.59,0,0,0-3.2,2.6,12.1,12.1,0,0,0-2.05,3.8A14,14,0,0,0,7,18.75a13.47,13.47,0,0,0,.8,4.67A11.86,11.86,0,0,0,10,27.2a10.06,10.06,0,0,0,3.33,2.52,9.44,9.44,0,0,0,4.17.93,11.63,11.63,0,0,0,8.49-4,2.82,2.82,0,0,0,.81-2V23.3H19.6"/><path class="cls-3" d="M49.8,37a14.45,14.45,0,0,1-5.75-1.1,12.82,12.82,0,0,1-4.32-3A13,13,0,0,1,37,28.6a14.18,14.18,0,0,1-1-5.15,14.33,14.33,0,0,1,1-5.2,13,13,0,0,1,2.73-4.33,12.8,12.8,0,0,1,4.32-3,15.53,15.53,0,0,1,11.48,0,13,13,0,0,1,4.3,3,13.18,13.18,0,0,1,2.72,4.33,14.33,14.33,0,0,1,1,5.2,14.18,14.18,0,0,1-1,5.15,13.24,13.24,0,0,1-2.7,4.32,12.64,12.64,0,0,1-4.3,3A14.45,14.45,0,0,1,49.8,37ZM43,23.45a8.86,8.86,0,0,0,.53,3.17,7.62,7.62,0,0,0,1.45,2.48,6.37,6.37,0,0,0,2.17,1.62,6.57,6.57,0,0,0,5.4,0,6.51,6.51,0,0,0,2.18-1.62,7.59,7.59,0,0,0,1.44-2.5,9.11,9.11,0,0,0,.53-3.2,9,9,0,0,0-.53-3.15,7.59,7.59,0,0,0-1.44-2.5,6.67,6.67,0,0,0-2.18-1.63,6.41,6.41,0,0,0-2.7-.57,6.14,6.14,0,0,0-2.7.6,6.73,6.73,0,0,0-2.17,1.65,7.61,7.61,0,0,0-1.45,2.5A9,9,0,0,0,43,23.45Z"/><path class="cls-3" d="M68,0h6.7V28.1a3.28,3.28,0,0,0,.7,2.25,2.53,2.53,0,0,0,2,.8,5.1,5.1,0,0,0,1.32-.2,8.34,8.34,0,0,0,1.38-.5l.9,5.1a13,13,0,0,1-3.15,1,17.43,17.43,0,0,1-3.25.35,6.71,6.71,0,0,1-4.88-1.68A6.32,6.32,0,0,1,68,30.45Z"/><path class="cls-3" d="M94.7,37a11.83,11.83,0,0,1-9-4,13.5,13.5,0,0,1-2.58-4.33,15.17,15.17,0,0,1-.92-5.32,15.71,15.71,0,0,1,.87-5.3,14.13,14.13,0,0,1,2.43-4.3,11.22,11.22,0,0,1,3.7-2.9A10.55,10.55,0,0,1,94,9.85a10,10,0,0,1,5.22,1.4,10.16,10.16,0,0,1,3.63,3.65V0h6.7V28.8a2.51,2.51,0,0,0,.35,1.5,1.53,1.53,0,0,0,1.2.5v5.7a15.54,15.54,0,0,1-2.85.35,4.65,4.65,0,0,1-3-.9A3.28,3.28,0,0,1,104,33.6L103.8,32a9.44,9.44,0,0,1-3.93,3.77A11,11,0,0,1,94.7,37Zm1.75-5.7a6.24,6.24,0,0,0,2-.33,6.67,6.67,0,0,0,1.85-.92,8.08,8.08,0,0,0,1.52-1.4,5.76,5.76,0,0,0,1-1.75V20.65a7.37,7.37,0,0,0-1.13-2A8.33,8.33,0,0,0,100,17a8.83,8.83,0,0,0-2-1.07,5.46,5.46,0,0,0-2-.4,6.08,6.08,0,0,0-2.78.65A6.51,6.51,0,0,0,91.1,18a8.45,8.45,0,0,0-1.4,2.58,9.26,9.26,0,0,0-.5,3,8.1,8.1,0,0,0,2,5.5,6.81,6.81,0,0,0,2.27,1.65A7,7,0,0,0,96.45,31.3Z"/><path class="cls-3" d="M128.25,37a14.48,14.48,0,0,1-5.7-1.08,12.86,12.86,0,0,1-7.13-7.22,13.78,13.78,0,0,1-1-5.15,14.47,14.47,0,0,1,1-5.28,12.82,12.82,0,0,1,2.75-4.35,13.11,13.11,0,0,1,4.37-3,14.63,14.63,0,0,1,5.78-1.1A14.23,14.23,0,0,1,134,11a13.06,13.06,0,0,1,4.3,3,12.34,12.34,0,0,1,2.7,4.3,14.23,14.23,0,0,1,.93,5.1c0,.43,0,.85,0,1.25a5.16,5.16,0,0,1-.12,1H121.55a7.79,7.79,0,0,0,.75,2.75,6.73,6.73,0,0,0,1.55,2.05,6.66,6.66,0,0,0,2.15,1.3,7,7,0,0,0,2.5.45,7.71,7.71,0,0,0,3.77-1,5.48,5.48,0,0,0,2.46-2.71h6.5c-1,2-3.29,5.38-5.41,6.67A14.34,14.34,0,0,1,128.25,37Zm6.8-15.8a7,7,0,0,0-2.18-4.73,6.65,6.65,0,0,0-4.67-1.77,6.85,6.85,0,0,0-2.53.47,6.62,6.62,0,0,0-2.07,1.33,7,7,0,0,0-1.48,2.05,7.14,7.14,0,0,0-.67,2.65Z"/><path class="cls-3" d="M170.4,36.5h-6.7V21.8a7.69,7.69,0,0,0-1.1-4.6,3.61,3.61,0,0,0-3-1.45,5.65,5.65,0,0,0-2.05.4,7.8,7.8,0,0,0-2,1.12A9.48,9.48,0,0,0,153.85,19a6.79,6.79,0,0,0-1.1,2.2V36.5h-6.7V10.3h6v4.85a9.81,9.81,0,0,1,4.2-3.9,13.5,13.5,0,0,1,6.2-1.4,7.92,7.92,0,0,1,4,.9,6.52,6.52,0,0,1,2.4,2.35,9.88,9.88,0,0,1,1.17,3.3,21.26,21.26,0,0,1,.33,3.75Z"/><path class="cls-4" d="M197.5,7.05H186.15V36.5H179.3V7.05H168V1H197.5Z"/><path class="cls-4" d="M211.35,16.1a13.14,13.14,0,0,0-5.45,1.17,6.89,6.89,0,0,0-3.45,3.38V36.5h-6.7V10.3h6.15v5.6a11.94,11.94,0,0,1,1.65-2.43,12.43,12.43,0,0,1,2-1.87,9.39,9.39,0,0,1,2.22-1.22A6,6,0,0,1,210,10h.82a3,3,0,0,1,.53.05Z"/><path class="cls-4" d="M221.8,0V6.65h-6.7m0,29.85V10.3h6.7V36.5Z"/><path class="cls-4" d="M235,37a10.07,10.07,0,0,1-3.55-.62,8.45,8.45,0,0,1-2.85-1.76A8,8,0,0,1,226.72,32a8,8,0,0,1-.67-3.3,7.32,7.32,0,0,1,.82-3.43,7.84,7.84,0,0,1,2.3-2.67,11.28,11.28,0,0,1,3.53-1.72,15.2,15.2,0,0,1,4.5-.63,19.42,19.42,0,0,1,3.42.3,13.81,13.81,0,0,1,3,.85V19.9a5.27,5.27,0,0,0-1.48-4,6.13,6.13,0,0,0-4.37-1.4,11.57,11.57,0,0,0-4.1.75,18.74,18.74,0,0,0-4.1,2.2L227.5,13.2a19.35,19.35,0,0,1,10.9-3.35c3.76,0,6.69.92,8.77,2.77s3.13,4.53,3.13,8V28.8a2.36,2.36,0,0,0,.37,1.5,1.64,1.64,0,0,0,1.23.5v5.7a15.26,15.26,0,0,1-3,.35A4.47,4.47,0,0,1,246,36a3.65,3.65,0,0,1-1.27-2.25l-.15-1.45a11.71,11.71,0,0,1-4.25,3.5A12.21,12.21,0,0,1,235,37Zm1.9-4.9a8.73,8.73,0,0,0,3.22-.6,5.84,5.84,0,0,0,2.38-1.6,2.42,2.42,0,0,0,1.1-1.9V25a17.25,17.25,0,0,0-2.6-.73,14.36,14.36,0,0,0-2.7-.27,7.17,7.17,0,0,0-4.25,1.17,3.6,3.6,0,0,0-.35,5.8A4.7,4.7,0,0,0,236.9,32.1Z"/><path class="cls-4" d="M280.9,36.5h-6.7V21.8a7.69,7.69,0,0,0-1.1-4.6,3.61,3.61,0,0,0-3.05-1.45,5.65,5.65,0,0,0-2.05.4,7.8,7.8,0,0,0-2,1.12A9.48,9.48,0,0,0,264.35,19a6.79,6.79,0,0,0-1.1,2.2V36.5h-6.7V10.3h6.05v4.85a9.81,9.81,0,0,1,4.2-3.9,13.5,13.5,0,0,1,6.2-1.4,7.92,7.92,0,0,1,4,.9,6.52,6.52,0,0,1,2.4,2.35,10.1,10.1,0,0,1,1.17,3.3,21.26,21.26,0,0,1,.33,3.75Z"/><path class="cls-4" d="M297,36.65a10.77,10.77,0,0,1-4.8-1,11.51,11.51,0,0,1-3.73-2.88,12.86,12.86,0,0,1-2.42-4.22,15.08,15.08,0,0,1-.85-5.1,15.24,15.24,0,0,1,.9-5.3,13.69,13.69,0,0,1,2.5-4.3,11.38,11.38,0,0,1,3.85-2.9,11.56,11.56,0,0,1,4.95-1.05,10.31,10.31,0,0,1,5.35,1.37,11.71,11.71,0,0,1,3.8,3.68V10.3h5.85v25a12,12,0,0,1-1.1,5.2,11.61,11.61,0,0,1-3,3.9,13.5,13.5,0,0,1-4.6,2.45,19,19,0,0,1-5.82.85,16.43,16.43,0,0,1-7.23-1.43,14.65,14.65,0,0,1-5-4l3.65-3.55a10.37,10.37,0,0,0,3.77,2.9,11.41,11.41,0,0,0,4.83,1.05,10.11,10.11,0,0,0,3-.43,7.2,7.2,0,0,0,2.53-1.32,6.25,6.25,0,0,0,1.72-2.3,8,8,0,0,0,.63-3.3V32a8.85,8.85,0,0,1-3.65,3.47A10.74,10.74,0,0,1,297,36.65Zm2.25-5.35a6.43,6.43,0,0,0,2.1-.35A7.53,7.53,0,0,0,303.2,30a8,8,0,0,0,1.5-1.4,6.54,6.54,0,0,0,1-1.7V20.65a8.16,8.16,0,0,0-2.83-3.7,6.75,6.75,0,0,0-4-1.4,5.77,5.77,0,0,0-2.8.67A6.9,6.9,0,0,0,293.9,18a8.2,8.2,0,0,0-1.38,2.58,9.51,9.51,0,0,0-.47,3,8,8,0,0,0,.55,3,7.6,7.6,0,0,0,1.52,2.45,7.17,7.17,0,0,0,2.28,1.65A6.68,6.68,0,0,0,299.25,31.3Z"/><path class="cls-4" d="M318.4,0h6.7V28.1a3.28,3.28,0,0,0,.7,2.25,2.51,2.51,0,0,0,2,.8,5.1,5.1,0,0,0,1.32-.2,9.05,9.05,0,0,0,1.38-.5l.9,5.1a13,13,0,0,1-3.15,1,17.52,17.52,0,0,1-3.25.35,6.71,6.71,0,0,1-4.88-1.68,6.32,6.32,0,0,1-1.72-4.77Z"/><path class="cls-4" d="M346.45,37a14.44,14.44,0,0,1-5.7-1.08A12.81,12.81,0,0,1,336.4,33a13,13,0,0,1-2.78-4.3,13.78,13.78,0,0,1-1-5.15,14.67,14.67,0,0,1,.94-5.28A12.78,12.78,0,0,1,340.72,11a14.63,14.63,0,0,1,5.78-1.1,14.23,14.23,0,0,1,5.72,1.1,13.16,13.16,0,0,1,4.3,3,12.64,12.64,0,0,1,2.7,4.3,14.23,14.23,0,0,1,.93,5.1c0,.43,0,.85,0,1.25a6.08,6.08,0,0,1-.12,1H339.75a7.39,7.39,0,0,0,.75,2.75,6.65,6.65,0,0,0,3.7,3.35,7,7,0,0,0,2.5.45,7.71,7.71,0,0,0,3.77-1,5.46,5.46,0,0,0,2.44-2.7h6.63c-1,2-3.4,5.38-5.52,6.67A14.36,14.36,0,0,1,346.45,37Zm6.8-15.8a7,7,0,0,0-2.18-4.73,6.65,6.65,0,0,0-4.67-1.77,6.59,6.59,0,0,0-4.61,1.8,7,7,0,0,0-1.47,2.05,7.14,7.14,0,0,0-.67,2.65Z"/></g></g></svg>