<svg xmlns="http://www.w3.org/2000/svg" viewBox="0 0 58.07 58.07"><defs><style>.cls-1{fill:#fff;stroke:#000;stroke-miterlimit:10;stroke-width:0.25px;}.cls-2{fill:#fedf00;}</style></defs><title>Single</title><g id="Layer_2" data-name="Layer 2"><g id="Layer_1-2" data-name="Layer 1"><circle class="cls-1" cx="29.04" cy="29.04" r="28.91"/><path class="cls-2" d="M44,28.54V46.79h-5.7v-4A13.57,13.57,0,0,1,28.35,47a15.72,15.72,0,0,1-6.57-1.4,16.71,16.71,0,0,1-5.35-3.85A18.34,18.34,0,0,1,12.83,36a19.09,19.09,0,0,1-1.33-7.17,18.06,18.06,0,0,1,5-12.53A17.41,17.41,0,0,1,22,12.46,16.41,16.41,0,0,1,28.8,11a16.69,16.69,0,0,1,8.58,2.1,13.58,13.58,0,0,1,5.37,5.65l-5.15,3.8a9.55,9.55,0,0,0-3.77-4.05,10.33,10.33,0,0,0-5.28-1.4,8.89,8.89,0,0,0-4.12.95,9.68,9.68,0,0,0-3.2,2.59,12.15,12.15,0,0,0-2.05,3.81A13.91,13.91,0,0,0,18.45,29a13.51,13.51,0,0,0,.8,4.67,12.16,12.16,0,0,0,2.2,3.78A10.34,10.34,0,0,0,24.78,40a9.43,9.43,0,0,0,4.17.92,11.57,11.57,0,0,0,8.49-4A2.77,2.77,0,0,0,38.25,35V33.59H31.1"/></g></g></svg>